<svg width="40" height="40" viewBox="0 0 40 40" fill="none" xmlns="http://www.w3.org/2000/svg">
<g clip-path="url(#clip0_869_797)">
<path d="M39.9991 20.1221C39.9991 9.00707 31.0441 -0.00292969 19.9991 -0.00292969C8.94914 -0.000429687 -0.00585938 9.00707 -0.00585938 20.1246C-0.00585938 30.1671 7.30914 38.4921 16.8691 40.0021V25.9396H11.7941V20.1246H16.8741V15.6871C16.8741 10.6446 19.8616 7.85957 24.4291 7.85957C26.6191 7.85957 28.9066 8.25207 28.9066 8.25207V13.2021H26.3841C23.9016 13.2021 23.1266 14.7546 23.1266 16.3471V20.1221H28.6716L27.7866 25.9371H23.1241V39.9996C32.6841 38.4896 39.9991 30.1646 39.9991 20.1221Z" fill="#5225CE"/>
</g>
<defs>
<clipPath id="clip0_869_797">
<rect width="40" height="40" fill="white"/>
</clipPath>
</defs>
</svg>
