<svg width="40" height="40" viewBox="0 0 40 40" fill="none" xmlns="http://www.w3.org/2000/svg">
<path d="M36.242 6.542C35.652 6.03 32.43 3.08 31.828 2.56C31.23 2.042 30.316 2 29.624 2H10.376C9.686 2 8.772 2.042 8.172 2.56C7.57 3.08 4.348 6.032 3.758 6.542C3.164 7.054 2.672 7.828 2.83 8.926C2.988 10.028 6.61 36.248 6.704 36.872C6.75361 37.1821 6.91055 37.4649 7.14742 37.671C7.38429 37.8772 7.68604 37.9936 8 38H32C32.3142 37.9936 32.6162 37.8768 32.8531 37.6703C33.09 37.4637 33.2468 37.1804 33.296 36.87C33.39 36.248 37.012 10.026 37.172 8.924C37.328 7.828 36.836 7.054 36.242 6.542ZM20 23.946C13.504 23.946 12.114 14.754 11.826 12.86H15.5C16.052 15.622 17.308 20.348 20 20.348C22.692 20.348 23.95 15.622 24.5 12.86H28.176C27.886 14.754 26.496 23.946 20 23.946ZM6.34 8.012L10 4H30L33.66 8.012H6.34Z" fill="#5225CE"/>
</svg>
