<svg width="40" height="40" viewBox="0 0 40 40" fill="none" xmlns="http://www.w3.org/2000/svg">
<path d="M33.126 4H13C11.6739 4 10.4021 4.52678 9.46447 5.46447C8.52678 6.40215 8 7.67392 8 9V26H20C20.5304 26 21.0391 26.2107 21.4142 26.5858C21.7893 26.9609 22 27.4696 22 28V32.188C22 34.396 23.79 36 26 36C28.19 36 29.97 34.426 30 32.24V8.752H30.006C30.0612 7.64333 30.4836 6.58452 31.2067 5.7423C31.9298 4.90009 32.9125 4.32232 34 4.1C33.7122 4.04111 33.4197 4.00765 33.126 4ZM21.366 36C20.4808 34.9271 19.9977 33.5789 20 32.188V28H3C2.73478 28 2.48043 28.1054 2.29289 28.2929C2.10536 28.4804 2 28.7348 2 29V31.376C2 34.04 4.172 36 6.75 36H21.366ZM36 14C36.5304 14 37.0391 13.7893 37.4142 13.4142C37.7893 13.0391 38 12.5304 38 12V9C38 8.20435 37.6839 7.44129 37.1213 6.87868C36.5587 6.31607 35.7957 6 35 6C34.2043 6 33.4413 6.31607 32.8787 6.87868C32.3161 7.44129 32 8.20435 32 9V14H36Z" fill="#5225CE"/>
</svg>
