<svg width="24" height="25" viewBox="0 0 24 25" fill="none" xmlns="http://www.w3.org/2000/svg">
<path d="M20 12.3398H10.5M18 15.3398L21 12.3398L18 9.33984M13 7.33984V6.33984C13 5.80941 12.7893 5.3007 12.4142 4.92563C12.0391 4.55056 11.5304 4.33984 11 4.33984H6C5.46957 4.33984 4.96086 4.55056 4.58579 4.92563C4.21071 5.3007 4 5.80941 4 6.33984V18.3398C4 18.8703 4.21071 19.379 4.58579 19.7541C4.96086 20.1291 5.46957 20.3398 6 20.3398H11C11.5304 20.3398 12.0391 20.1291 12.4142 19.7541C12.7893 19.379 13 18.8703 13 18.3398V17.3398" stroke="#FF0000" stroke-opacity="0.53" stroke-width="2" stroke-linecap="round" stroke-linejoin="round"/>
</svg>
