<svg width="40" height="40" viewBox="0 0 40 40" fill="none" xmlns="http://www.w3.org/2000/svg">
<path fill-rule="evenodd" clip-rule="evenodd" d="M21.178 3.82196C20.8654 3.50951 20.4416 3.33398 19.9996 3.33398C19.5577 3.33398 19.1339 3.50951 18.8213 3.82196L7.15465 15.4886L3.82131 18.822C3.66213 18.9757 3.53516 19.1596 3.44781 19.363C3.36046 19.5663 3.31449 19.785 3.31256 20.0063C3.31064 20.2276 3.35281 20.4471 3.43661 20.6519C3.52041 20.8567 3.64417 21.0428 3.80066 21.1993C3.95714 21.3558 4.14323 21.4795 4.34806 21.5633C4.55288 21.6471 4.77235 21.6893 4.99365 21.6874C5.21495 21.6855 5.43365 21.6395 5.63699 21.5521C5.84033 21.4648 6.02424 21.3378 6.17798 21.1786L6.66631 20.6903V31.667C6.66631 32.993 7.1931 34.2648 8.13078 35.2025C9.06846 36.1402 10.3402 36.667 11.6663 36.667H28.333C29.6591 36.667 30.9308 36.1402 31.8685 35.2025C32.8062 34.2648 33.333 32.993 33.333 31.667V20.6903L33.8213 21.1786C34.1357 21.4822 34.5567 21.6502 34.9936 21.6464C35.4306 21.6426 35.8487 21.4673 36.1577 21.1583C36.4667 20.8493 36.642 20.4313 36.6458 19.9943C36.6496 19.5573 36.4816 19.1363 36.178 18.822L21.178 3.82196Z" fill="#5225CE"/>
</svg>
