<svg width="40" height="40" viewBox="0 0 40 40" fill="none" xmlns="http://www.w3.org/2000/svg">
<path d="M20.0007 13.3337H6.66732C5.78326 13.3337 4.93542 13.6848 4.31029 14.31C3.68517 14.9351 3.33398 15.7829 3.33398 16.667V23.3337C3.33398 24.2177 3.68517 25.0656 4.31029 25.6907C4.93542 26.3158 5.78326 26.667 6.66732 26.667H8.33398V33.3337C8.33398 33.7757 8.50958 34.1996 8.82214 34.5122C9.1347 34.8247 9.55862 35.0003 10.0007 35.0003H13.334C13.776 35.0003 14.1999 34.8247 14.5125 34.5122C14.8251 34.1996 15.0007 33.7757 15.0007 33.3337V26.667H20.0007L28.334 33.3337V6.66699L20.0007 13.3337ZM35.834 20.0003C35.834 22.8503 34.234 25.4337 31.6673 26.667V13.3337C34.2173 14.5837 35.834 17.167 35.834 20.0003Z" fill="#5225CE"/>
</svg>
