<svg width="24" height="25" viewBox="0 0 24 25" fill="none" xmlns="http://www.w3.org/2000/svg">
<g clip-path="url(#clip0_869_934)">
<path d="M12 24.3398C8.8174 24.3398 5.76516 23.0756 3.51472 20.8251C1.26428 18.5747 0 15.5224 0 12.3398C0 9.15725 1.26428 6.105 3.51472 3.85456C5.76516 1.60413 8.8174 0.339844 12 0.339844C15.1826 0.339844 18.2348 1.60413 20.4853 3.85456C22.7357 6.105 24 9.15725 24 12.3398C24 15.5224 22.7357 18.5747 20.4853 20.8251C18.2348 23.0756 15.1826 24.3398 12 24.3398ZM13.2705 12.1223C14.1019 11.8232 14.8011 11.2404 15.245 10.4765C15.6889 9.71255 15.849 8.81649 15.6972 7.9461C15.5454 7.0757 15.0914 6.28677 14.415 5.71821C13.7387 5.14966 12.8835 4.83794 12 4.83794C11.1165 4.83794 10.2613 5.14966 9.58495 5.71821C8.90865 6.28677 8.45462 7.0757 8.30281 7.9461C8.151 8.81649 8.31115 9.71255 8.75504 10.4765C9.19894 11.2404 9.89813 11.8232 10.7295 12.1223C8.2065 12.7313 6 15.0023 6 16.8398C6 17.4323 6.2175 18.3323 7.5 18.3323H16.5C17.7825 18.3323 18 17.4323 18 16.8398C18 15.0038 15.795 12.7298 13.2705 12.1223Z" fill="#5225CE"/>
</g>
<defs>
<clipPath id="clip0_869_934">
<rect width="24" height="24" fill="white" transform="translate(0 0.339844)"/>
</clipPath>
</defs>
</svg>
