<svg width="24" height="24" viewBox="0 0 24 24" fill="none" xmlns="http://www.w3.org/2000/svg">
<path d="M19.4992 6.29922H14.9992C14.9197 6.29922 14.8433 6.26761 14.7871 6.21135C14.7308 6.15509 14.6992 6.07878 14.6992 5.99922V1.49922C14.6992 1.41965 14.7308 1.34335 14.7871 1.28709C14.8433 1.23083 14.9197 1.19922 14.9992 1.19922C15.0788 1.19922 15.1551 1.23083 15.2114 1.28709C15.2676 1.34335 15.2992 1.41965 15.2992 1.49922V5.69922H19.4992C19.5788 5.69922 19.6551 5.73083 19.7114 5.78709C19.7676 5.84335 19.7992 5.91965 19.7992 5.99922C19.7992 6.07878 19.7676 6.15509 19.7114 6.21135C19.6551 6.26761 19.5788 6.29922 19.4992 6.29922Z" fill="#5225CE"/>
<path d="M19.4992 9.28902C19.4197 9.28902 19.3433 9.25741 19.2871 9.20115C19.2308 9.14489 19.1992 9.06859 19.1992 8.98902V6.12342L14.875 1.79922H5.99922C5.68096 1.79922 5.37573 1.92565 5.15069 2.15069C4.92565 2.37573 4.79922 2.68096 4.79922 2.99922V8.88942C4.79922 8.96899 4.76761 9.04529 4.71135 9.10155C4.65509 9.15781 4.57878 9.18942 4.49922 9.18942C4.41965 9.18942 4.34335 9.15781 4.28709 9.10155C4.23083 9.04529 4.19922 8.96899 4.19922 8.88942V2.99922C4.19922 2.52183 4.38886 2.06399 4.72643 1.72643C5.06399 1.38886 5.52183 1.19922 5.99922 1.19922H14.9992C15.0386 1.19915 15.0777 1.20685 15.1141 1.22188C15.1506 1.23691 15.1837 1.25898 15.2116 1.28682L19.7116 5.78682C19.7395 5.81473 19.7615 5.84786 19.7766 5.8843C19.7916 5.92075 19.7993 5.9598 19.7992 5.99922V8.98902C19.7992 9.02842 19.7915 9.06743 19.7764 9.10383C19.7613 9.14022 19.7392 9.1733 19.7113 9.20115C19.6835 9.22901 19.6504 9.25111 19.614 9.26618C19.5776 9.28126 19.5386 9.28902 19.4992 9.28902Z" fill="#5225CE"/>
<path d="M17.9992 22.7992H5.99922C5.52183 22.7992 5.06399 22.6096 4.72643 22.272C4.38886 21.9344 4.19922 21.4766 4.19922 20.9992V16.4992C4.19922 16.4197 4.23083 16.3433 4.28709 16.2871C4.34335 16.2308 4.41965 16.1992 4.49922 16.1992C4.57878 16.1992 4.65509 16.2308 4.71135 16.2871C4.76761 16.3433 4.79922 16.4197 4.79922 16.4992V20.9992C4.79922 21.3175 4.92565 21.6227 5.15069 21.8477C5.37573 22.0728 5.68096 22.1992 5.99922 22.1992H17.9992C18.3175 22.1992 18.6227 22.0728 18.8477 21.8477C19.0728 21.6227 19.1992 21.3175 19.1992 20.9992V16.4992C19.1992 16.4197 19.2308 16.3433 19.2871 16.2871C19.3433 16.2308 19.4197 16.1992 19.4992 16.1992C19.5788 16.1992 19.6551 16.2308 19.7113 16.2871C19.7676 16.3433 19.7992 16.4197 19.7992 16.4992V20.9992C19.7992 21.4766 19.6096 21.9344 19.272 22.272C18.9344 22.6096 18.4766 22.7992 17.9992 22.7992Z" fill="#5225CE"/>
<path d="M16.4992 16.7992H7.49922C7.41965 16.7992 7.34335 16.7676 7.28709 16.7114C7.23083 16.6551 7.19922 16.5788 7.19922 16.4992C7.19922 16.4197 7.23083 16.3433 7.28709 16.2871C7.34335 16.2308 7.41965 16.1992 7.49922 16.1992H16.4992C16.5788 16.1992 16.6551 16.2308 16.7114 16.2871C16.7676 16.3433 16.7992 16.4197 16.7992 16.4992C16.7992 16.5788 16.7676 16.6551 16.7114 16.7114C16.6551 16.7676 16.5788 16.7992 16.4992 16.7992Z" fill="#5225CE"/>
<path d="M11.9992 19.7992H7.49922C7.41965 19.7992 7.34335 19.7676 7.28709 19.7114C7.23083 19.6551 7.19922 19.5788 7.19922 19.4992C7.19922 19.4197 7.23083 19.3433 7.28709 19.2871C7.34335 19.2308 7.41965 19.1992 7.49922 19.1992H11.9992C12.0788 19.1992 12.1551 19.2308 12.2114 19.2871C12.2676 19.3433 12.2992 19.4197 12.2992 19.4992C12.2992 19.5788 12.2676 19.6551 12.2114 19.7114C12.1551 19.7676 12.0788 19.7992 11.9992 19.7992Z" fill="#5225CE"/>
<path d="M19.4992 16.7996H4.49922C4.02183 16.7996 3.56399 16.61 3.22643 16.2724C2.88886 15.9349 2.69922 15.477 2.69922 14.9996V10.3898C2.69922 9.91245 2.88886 9.45462 3.22643 9.11705C3.56399 8.77949 4.02183 8.58984 4.49922 8.58984H4.51122L19.5112 8.68944C19.9862 8.69386 20.4403 8.88528 20.7751 9.22222C21.1099 9.55915 21.2984 10.0145 21.2998 10.4894V14.9996C21.2998 15.2361 21.2532 15.4702 21.1627 15.6886C21.0723 15.907 20.9396 16.1055 20.7724 16.2726C20.6052 16.4398 20.4067 16.5724 20.1882 16.6628C19.9698 16.7532 19.7356 16.7997 19.4992 16.7996ZM4.49922 9.18984C4.18096 9.18984 3.87573 9.31627 3.65069 9.54132C3.42565 9.76636 3.29922 10.0716 3.29922 10.3898V14.9996C3.29922 15.3179 3.42565 15.6231 3.65069 15.8482C3.87573 16.0732 4.18096 16.1996 4.49922 16.1996H19.4992C19.8175 16.1996 20.1227 16.0732 20.3477 15.8482C20.5728 15.6231 20.6992 15.3179 20.6992 14.9996V10.4894C20.6983 10.1727 20.5725 9.86912 20.3493 9.64449C20.126 9.41985 19.8231 9.29228 19.5064 9.28944L4.50642 9.18984H4.49922Z" fill="#5225CE"/>
<path d="M8.7016 14.1601H8.125V10.9609H9.4354C9.809 10.9609 10.086 11.0551 10.2664 11.2435C10.444 11.4301 10.5412 11.679 10.5371 11.9366C10.5329 12.1941 10.4277 12.4398 10.2442 12.6205C10.0415 12.8046 9.77497 12.9021 9.5014 12.8923H8.7016V14.1601ZM8.7016 12.3979H9.3838C9.5618 12.3979 9.6978 12.3541 9.7918 12.2665C9.83877 12.2217 9.8756 12.1674 9.89982 12.1071C9.92403 12.0469 9.93508 11.9822 9.9322 11.9173C9.9344 11.7923 9.88768 11.6713 9.802 11.5801C9.7152 11.4865 9.5586 11.4397 9.3322 11.4397H8.7016V12.3979Z" fill="#5225CE"/>
<path d="M10.9805 14.1601V10.9609H12.1625C12.5985 10.9609 12.9485 11.1151 13.2125 11.4235C13.4765 11.7319 13.6085 12.1119 13.6085 12.5635C13.6085 13.0167 13.4725 13.3957 13.2005 13.7005C12.9285 14.0053 12.5395 14.1585 12.0335 14.1601H10.9805ZM11.5733 13.6891H12.0533C12.1771 13.6908 12.2999 13.6657 12.4131 13.6155C12.5264 13.5654 12.6276 13.4915 12.7097 13.3987C12.8893 13.2051 12.9791 12.9169 12.9791 12.5341C12.9879 12.2512 12.9052 11.9731 12.7433 11.7409C12.675 11.6391 12.5822 11.5561 12.4735 11.4994C12.3648 11.4427 12.2436 11.4141 12.1211 11.4163H11.5727L11.5733 13.6891Z" fill="#5225CE"/>
<path d="M14.734 14.1601H14.1406V10.9609H16.1632V11.4553H14.734V12.3295H15.859V12.8095H14.734V14.1601Z" fill="#5225CE"/>
</svg>
