<svg width="24" height="24" viewBox="0 0 24 24" fill="none" xmlns="http://www.w3.org/2000/svg">
<path d="M19.4992 6.29922H14.9992C14.9197 6.29922 14.8433 6.26761 14.7871 6.21135C14.7308 6.15509 14.6992 6.07878 14.6992 5.99922V1.49922C14.6992 1.41965 14.7308 1.34335 14.7871 1.28709C14.8433 1.23083 14.9197 1.19922 14.9992 1.19922C15.0788 1.19922 15.1551 1.23083 15.2114 1.28709C15.2676 1.34335 15.2992 1.41965 15.2992 1.49922V5.69922H19.4992C19.5788 5.69922 19.6551 5.73083 19.7114 5.78709C19.7676 5.84335 19.7992 5.91965 19.7992 5.99922C19.7992 6.07878 19.7676 6.15509 19.7114 6.21135C19.6551 6.26761 19.5788 6.29922 19.4992 6.29922Z" fill="#5225CE"/>
<path d="M19.4992 9.28902C19.4197 9.28902 19.3433 9.25741 19.2871 9.20115C19.2308 9.14489 19.1992 9.06859 19.1992 8.98902V6.12342L14.875 1.79922H5.99922C5.68096 1.79922 5.37573 1.92565 5.15069 2.15069C4.92565 2.37573 4.79922 2.68096 4.79922 2.99922V8.88942C4.79922 8.96899 4.76761 9.04529 4.71135 9.10155C4.65509 9.15781 4.57878 9.18942 4.49922 9.18942C4.41965 9.18942 4.34335 9.15781 4.28709 9.10155C4.23083 9.04529 4.19922 8.96899 4.19922 8.88942V2.99922C4.19922 2.52183 4.38886 2.06399 4.72643 1.72643C5.06399 1.38886 5.52183 1.19922 5.99922 1.19922H14.9992C15.0386 1.19915 15.0777 1.20685 15.1141 1.22188C15.1506 1.23691 15.1837 1.25898 15.2116 1.28682L19.7116 5.78682C19.7395 5.81473 19.7615 5.84786 19.7766 5.8843C19.7916 5.92075 19.7993 5.9598 19.7992 5.99922V8.98902C19.7992 9.02842 19.7915 9.06743 19.7764 9.10383C19.7613 9.14022 19.7392 9.1733 19.7113 9.20115C19.6835 9.22901 19.6504 9.25111 19.614 9.26618C19.5776 9.28126 19.5386 9.28902 19.4992 9.28902Z" fill="#5225CE"/>
<path d="M17.9992 22.7992H5.99922C5.52183 22.7992 5.06399 22.6096 4.72643 22.272C4.38886 21.9344 4.19922 21.4766 4.19922 20.9992V16.4992C4.19922 16.4197 4.23083 16.3433 4.28709 16.2871C4.34335 16.2308 4.41965 16.1992 4.49922 16.1992C4.57878 16.1992 4.65509 16.2308 4.71135 16.2871C4.76761 16.3433 4.79922 16.4197 4.79922 16.4992V20.9992C4.79922 21.3175 4.92565 21.6227 5.15069 21.8477C5.37573 22.0728 5.68096 22.1992 5.99922 22.1992H17.9992C18.3175 22.1992 18.6227 22.0728 18.8477 21.8477C19.0728 21.6227 19.1992 21.3175 19.1992 20.9992V16.4992C19.1992 16.4197 19.2308 16.3433 19.2871 16.2871C19.3433 16.2308 19.4197 16.1992 19.4992 16.1992C19.5788 16.1992 19.6551 16.2308 19.7113 16.2871C19.7676 16.3433 19.7992 16.4197 19.7992 16.4992V20.9992C19.7992 21.4766 19.6096 21.9344 19.272 22.272C18.9344 22.6096 18.4766 22.7992 17.9992 22.7992Z" fill="#5225CE"/>
<path d="M16.4992 16.7992H7.49922C7.41965 16.7992 7.34335 16.7676 7.28709 16.7114C7.23083 16.6551 7.19922 16.5788 7.19922 16.4992C7.19922 16.4197 7.23083 16.3433 7.28709 16.2871C7.34335 16.2308 7.41965 16.1992 7.49922 16.1992H16.4992C16.5788 16.1992 16.6551 16.2308 16.7114 16.2871C16.7676 16.3433 16.7992 16.4197 16.7992 16.4992C16.7992 16.5788 16.7676 16.6551 16.7114 16.7114C16.6551 16.7676 16.5788 16.7992 16.4992 16.7992Z" fill="#5225CE"/>
<path d="M11.9992 19.7992H7.49922C7.41965 19.7992 7.34335 19.7676 7.28709 19.7114C7.23083 19.6551 7.19922 19.5788 7.19922 19.4992C7.19922 19.4197 7.23083 19.3433 7.28709 19.2871C7.34335 19.2308 7.41965 19.1992 7.49922 19.1992H11.9992C12.0788 19.1992 12.1551 19.2308 12.2114 19.2871C12.2676 19.3433 12.2992 19.4197 12.2992 19.4992C12.2992 19.5788 12.2676 19.6551 12.2114 19.7114C12.1551 19.7676 12.0788 19.7992 11.9992 19.7992Z" fill="#5225CE"/>
<path d="M19.4992 16.7996H4.49922C4.02183 16.7996 3.56399 16.61 3.22643 16.2724C2.88886 15.9349 2.69922 15.477 2.69922 14.9996V10.3898C2.69922 9.91245 2.88886 9.45462 3.22643 9.11705C3.56399 8.77949 4.02183 8.58984 4.49922 8.58984H4.51122L19.5112 8.68944C19.9862 8.69386 20.4403 8.88528 20.7751 9.22222C21.1099 9.55915 21.2984 10.0145 21.2998 10.4894V14.9996C21.2998 15.2361 21.2532 15.4702 21.1627 15.6886C21.0723 15.907 20.9396 16.1055 20.7724 16.2726C20.6052 16.4398 20.4067 16.5724 20.1882 16.6628C19.9698 16.7532 19.7356 16.7997 19.4992 16.7996ZM4.49922 9.18984C4.18096 9.18984 3.87573 9.31627 3.65069 9.54132C3.42565 9.76636 3.29922 10.0716 3.29922 10.3898V14.9996C3.29922 15.3179 3.42565 15.6231 3.65069 15.8482C3.87573 16.0732 4.18096 16.1996 4.49922 16.1996H19.4992C19.8175 16.1996 20.1227 16.0732 20.3477 15.8482C20.5728 15.6231 20.6992 15.3179 20.6992 14.9996V10.4894C20.6983 10.1727 20.5725 9.86912 20.3493 9.64449C20.126 9.41985 19.8231 9.29228 19.5064 9.28944L4.50642 9.18984H4.49922Z" fill="#5225CE"/>
<path d="M10.8145 13.02C10.6932 13.02 10.5938 12.9727 10.5165 12.878C10.4405 12.782 10.4025 12.6413 10.4025 12.456C10.4025 12.2693 10.4412 12.128 10.5185 12.032C10.5958 11.936 10.6972 11.888 10.8225 11.888C10.8745 11.888 10.9205 11.8953 10.9605 11.91C11.0005 11.9233 11.0345 11.942 11.0625 11.966C11.0918 11.99 11.1165 12.0173 11.1365 12.048H11.1465C11.1425 12.0267 11.1378 11.996 11.1325 11.956C11.1272 11.9147 11.1245 11.8727 11.1245 11.83V11.48H11.4225V13H11.1945L11.1365 12.858H11.1245C11.1058 12.8873 11.0818 12.9147 11.0525 12.94C11.0245 12.964 10.9912 12.9833 10.9525 12.998C10.9138 13.0127 10.8678 13.02 10.8145 13.02ZM10.9185 12.782C11.0012 12.782 11.0592 12.758 11.0925 12.71C11.1258 12.6607 11.1432 12.5873 11.1445 12.49V12.458C11.1445 12.3513 11.1278 12.27 11.0945 12.214C11.0625 12.158 11.0025 12.13 10.9145 12.13C10.8492 12.13 10.7978 12.1587 10.7605 12.216C10.7232 12.272 10.7045 12.3533 10.7045 12.46C10.7045 12.5667 10.7232 12.6473 10.7605 12.702C10.7978 12.7553 10.8505 12.782 10.9185 12.782ZM12.7261 12.452C12.7261 12.5427 12.7135 12.6233 12.6881 12.694C12.6641 12.7647 12.6288 12.8247 12.5821 12.874C12.5368 12.922 12.4815 12.9587 12.4161 12.984C12.3508 13.008 12.2768 13.02 12.1941 13.02C12.1181 13.02 12.0475 13.008 11.9821 12.984C11.9181 12.9587 11.8628 12.922 11.8161 12.874C11.7695 12.8247 11.7328 12.7647 11.7061 12.694C11.6808 12.6233 11.6681 12.5427 11.6681 12.452C11.6681 12.3307 11.6895 12.2287 11.7321 12.146C11.7748 12.062 11.8361 11.998 11.9161 11.954C11.9961 11.91 12.0908 11.888 12.2001 11.888C12.3028 11.888 12.3935 11.91 12.4721 11.954C12.5508 11.998 12.6128 12.062 12.6581 12.146C12.7035 12.2287 12.7261 12.3307 12.7261 12.452ZM11.9721 12.452C11.9721 12.524 11.9795 12.5847 11.9941 12.634C12.0101 12.682 12.0348 12.7187 12.0681 12.744C12.1015 12.768 12.1448 12.78 12.1981 12.78C12.2515 12.78 12.2941 12.768 12.3261 12.744C12.3595 12.7187 12.3835 12.682 12.3981 12.634C12.4141 12.5847 12.4221 12.524 12.4221 12.452C12.4221 12.38 12.4141 12.32 12.3981 12.272C12.3835 12.224 12.3595 12.188 12.3261 12.164C12.2928 12.14 12.2495 12.128 12.1961 12.128C12.1175 12.128 12.0601 12.1553 12.0241 12.21C11.9895 12.2633 11.9721 12.344 11.9721 12.452ZM13.4164 13.02C13.3084 13.02 13.2164 13.0007 13.1404 12.962C13.0644 12.922 13.0064 12.8607 12.9664 12.778C12.9264 12.6953 12.9064 12.5893 12.9064 12.46C12.9064 12.3267 12.9291 12.218 12.9744 12.134C13.0197 12.05 13.0824 11.988 13.1624 11.948C13.2437 11.908 13.3371 11.888 13.4424 11.888C13.5171 11.888 13.5817 11.8953 13.6364 11.91C13.6924 11.9247 13.7411 11.942 13.7824 11.962L13.6944 12.192C13.6477 12.1733 13.6037 12.158 13.5624 12.146C13.5224 12.134 13.4824 12.128 13.4424 12.128C13.3904 12.128 13.3471 12.1407 13.3124 12.166C13.2777 12.19 13.2517 12.2267 13.2344 12.276C13.2184 12.324 13.2104 12.3847 13.2104 12.458C13.2104 12.53 13.2191 12.59 13.2364 12.638C13.2551 12.6847 13.2817 12.72 13.3164 12.744C13.3511 12.7667 13.3931 12.778 13.4424 12.778C13.5051 12.778 13.5604 12.77 13.6084 12.754C13.6564 12.7367 13.7031 12.7133 13.7484 12.684V12.938C13.7031 12.9673 13.6551 12.988 13.6044 13C13.5551 13.0133 13.4924 13.02 13.4164 13.02ZM14.2238 12.442L13.8718 11.908H14.2098L14.4218 12.256L14.6358 11.908H14.9737L14.6178 12.442L14.9898 13H14.6518L14.4218 12.626L14.1918 13H13.8538L14.2238 12.442Z" fill="#5225CE"/>
</svg>
