<svg width="24" height="25" viewBox="0 0 24 25" fill="none" xmlns="http://www.w3.org/2000/svg">
<path d="M12 2.33984C17.523 2.33984 22 6.81684 22 12.3398C22 17.8628 17.523 22.3398 12 22.3398C6.477 22.3398 2 17.8628 2 12.3398C2 6.81684 6.477 2.33984 12 2.33984ZM8.823 15.6828C8.428 15.2058 7.937 15.0358 7.344 15.1738L7.194 15.2148L6.604 16.2308C6.49273 16.412 6.45587 16.6292 6.50115 16.8369C6.54643 17.0446 6.67033 17.2267 6.8469 17.3451C7.02347 17.4635 7.23901 17.509 7.44837 17.4721C7.65772 17.4351 7.84465 17.3186 7.97 17.1468L8.032 17.0538L8.823 15.6828ZM13.21 8.99984C12.722 9.40384 12.23 10.5968 12.92 11.7868L15.96 17.0528C16.0653 17.2317 16.2342 17.3643 16.433 17.4241C16.6318 17.4838 16.8458 17.4664 17.0322 17.3751C17.2187 17.2839 17.3639 17.1257 17.4387 16.9321C17.5136 16.7385 17.5126 16.5238 17.436 16.3308L17.387 16.2308L16.585 14.8388H17.775C17.8831 14.8391 17.9902 14.818 18.0901 14.7767C18.19 14.7354 18.2808 14.6748 18.3572 14.5983C18.4336 14.5218 18.4941 14.431 18.5353 14.331C18.5764 14.2311 18.5974 14.1239 18.597 14.0158C18.5975 13.8153 18.5245 13.6216 18.3919 13.4712C18.2592 13.3208 18.076 13.2243 17.877 13.1998L17.774 13.1938H15.634L13.44 9.39684L13.21 8.99984ZM13.488 5.95584C13.3153 5.85665 13.1126 5.82327 12.9172 5.86187C12.7218 5.90047 12.547 6.00843 12.425 6.16584L12.363 6.25784L11.996 6.89084L11.637 6.25784C11.5317 6.07894 11.3628 5.94637 11.164 5.88661C10.9652 5.82686 10.7512 5.84434 10.5648 5.93554C10.3783 6.02675 10.2331 6.18498 10.1583 6.37859C10.0834 6.5722 10.0844 6.78692 10.161 6.97984L10.21 7.07984L11.048 8.53684L8.363 13.1898H6.266C6.15798 13.1896 6.05097 13.2107 5.95112 13.2519C5.85127 13.2931 5.76055 13.3536 5.68417 13.43C5.60779 13.5064 5.54725 13.5971 5.50603 13.697C5.46482 13.7968 5.44374 13.9038 5.444 14.0118C5.444 14.4328 5.756 14.7778 6.163 14.8288L6.266 14.8348H13.746C14.086 14.1948 13.686 13.2858 12.936 13.1968L12.815 13.1898H10.262L13.79 7.07984C13.899 6.89074 13.9284 6.66609 13.8718 6.4553C13.8151 6.24451 13.6771 6.06485 13.488 5.95584Z" fill="#5225CE"/>
</svg>
