<svg width="24" height="25" viewBox="0 0 24 25" fill="none" xmlns="http://www.w3.org/2000/svg">
<path fill-rule="evenodd" clip-rule="evenodd" d="M12.052 1.58984H11.948C11.049 1.58984 10.3 1.58984 9.706 1.66984C9.078 1.75384 8.511 1.93984 8.056 2.39484C7.6 2.85084 7.414 3.41784 7.33 4.04484C7.273 4.47184 7.256 5.49084 7.252 6.36484C5.23 6.43184 4.015 6.66784 3.172 7.51184C2 8.68284 2 10.5688 2 14.3398C2 18.1108 2 19.9968 3.172 21.1678C4.343 22.3398 6.229 22.3398 10 22.3398H14C17.771 22.3398 19.657 22.3398 20.828 21.1678C22 19.9968 22 18.1108 22 14.3398C22 10.5688 22 8.68284 20.828 7.51184C19.985 6.66784 18.77 6.43184 16.748 6.36584C16.744 5.49084 16.728 4.47184 16.67 4.04584C16.586 3.41784 16.4 2.85084 15.944 2.39584C15.489 1.93984 14.922 1.75384 14.294 1.66984C13.7 1.58984 12.95 1.58984 12.052 1.58984ZM15.248 6.34184C15.243 5.49484 15.229 4.58384 15.184 4.24484C15.121 3.78384 15.014 3.58584 14.884 3.45584C14.754 3.32584 14.556 3.21884 14.094 3.15584C13.612 3.09184 12.964 3.08984 12 3.08984C11.036 3.08984 10.388 3.09184 9.905 3.15684C9.444 3.21884 9.246 3.32584 9.116 3.45684C8.986 3.58684 8.879 3.78384 8.816 4.24484C8.771 4.58484 8.756 5.49484 8.752 6.34184C9.143 6.33984 9.56 6.33984 10 6.33984H14C14.441 6.33984 14.857 6.33984 15.248 6.34184ZM12 9.58984C12.1989 9.58984 12.3897 9.66886 12.5303 9.80951C12.671 9.95017 12.75 10.1409 12.75 10.3398V10.3498C13.839 10.6238 14.75 11.4828 14.75 12.6728C14.75 12.8718 14.671 13.0625 14.5303 13.2032C14.3897 13.3438 14.1989 13.4228 14 13.4228C13.8011 13.4228 13.6103 13.3438 13.4697 13.2032C13.329 13.0625 13.25 12.8718 13.25 12.6728C13.25 12.2888 12.824 11.7568 12 11.7568C11.176 11.7568 10.75 12.2888 10.75 12.6728C10.75 13.0568 11.176 13.5898 12 13.5898C13.385 13.5898 14.75 14.5498 14.75 16.0068C14.75 17.1968 13.839 18.0548 12.75 18.3298V18.3398C12.75 18.5388 12.671 18.7295 12.5303 18.8702C12.3897 19.0108 12.1989 19.0898 12 19.0898C11.8011 19.0898 11.6103 19.0108 11.4697 18.8702C11.329 18.7295 11.25 18.5388 11.25 18.3398V18.3298C10.161 18.0558 9.25 17.1968 9.25 16.0068C9.25 15.8079 9.32902 15.6172 9.46967 15.4765C9.61032 15.3359 9.80109 15.2568 10 15.2568C10.1989 15.2568 10.3897 15.3359 10.5303 15.4765C10.671 15.6172 10.75 15.8079 10.75 16.0068C10.75 16.3908 11.176 16.9228 12 16.9228C12.824 16.9228 13.25 16.3908 13.25 16.0068C13.25 15.6228 12.824 15.0898 12 15.0898C10.615 15.0898 9.25 14.1298 9.25 12.6728C9.25 11.4828 10.161 10.6238 11.25 10.3498V10.3398C11.25 10.1409 11.329 9.95017 11.4697 9.80951C11.6103 9.66886 11.8011 9.58984 12 9.58984Z" fill="#5225CE"/>
</svg>
