<svg width="24" height="25" viewBox="0 0 24 25" fill="none" xmlns="http://www.w3.org/2000/svg">
<g clip-path="url(#clip0_869_949)">
<path fill-rule="evenodd" clip-rule="evenodd" d="M11.9777 2.91218C11.2611 2.89924 10.5489 3.02775 9.88202 3.29035C9.21511 3.55294 8.60653 3.94448 8.09111 4.44254C7.57569 4.94061 7.16355 5.53543 6.87827 6.19296C6.59299 6.85048 6.44018 7.55781 6.42857 8.27447V15.7693C6.42857 16.224 6.24796 16.66 5.92647 16.9815C5.60498 17.303 5.16894 17.4836 4.71429 17.4836H2.57143C1.88944 17.4836 1.23539 17.2127 0.753154 16.7305C0.270918 16.2482 0 15.5942 0 14.9122L0 11.4836C0 10.8016 0.270918 10.1476 0.753154 9.66534C1.23539 9.1831 1.88944 8.91218 2.57143 8.91218H3.85714V8.24361C3.87278 7.19 4.09583 6.14979 4.51353 5.18239C4.93123 4.21499 5.53542 3.33935 6.29158 2.60548C7.04774 1.8716 7.94105 1.29388 8.92052 0.905294C9.89998 0.516709 10.9464 0.324878 12 0.340755C13.0536 0.324878 14.1 0.516709 15.0795 0.905294C16.0589 1.29388 16.9523 1.8716 17.7084 2.60548C18.4646 3.33935 19.0688 4.21499 19.4865 5.18239C19.9042 6.14979 20.1272 7.19 20.1429 8.24361V8.91218H21.4286C22.1106 8.91218 22.7646 9.1831 23.2468 9.66534C23.7291 10.1476 24 10.8016 24 11.4836V14.9122C24 15.5942 23.7291 16.2482 23.2468 16.7305C22.7646 17.2127 22.1106 17.4836 21.4286 17.4836H20.1429V18.3408C20.1431 19.4992 19.7168 20.6172 18.9452 21.4813C18.1737 22.3455 17.1111 22.8953 15.96 23.0259C15.7365 23.425 15.4105 23.7573 15.0158 23.9884C14.621 24.2195 14.1717 24.3411 13.7143 24.3408H11.1429C10.4609 24.3408 9.80682 24.0698 9.32458 23.5876C8.84235 23.1054 8.57143 22.4513 8.57143 21.7693C8.57143 21.0873 8.84235 20.4333 9.32458 19.9511C9.80682 19.4688 10.4609 19.1979 11.1429 19.1979H13.7143C14.6434 19.1979 15.4577 19.6899 15.9086 20.4288C16.3811 20.3202 16.8028 20.0545 17.1048 19.6753C17.4068 19.296 17.5713 18.8256 17.5714 18.3408V8.27275C17.5597 7.55241 17.4052 6.84154 17.1171 6.18124C16.8289 5.52095 16.4127 4.92432 15.8926 4.42584C15.3724 3.92737 14.7586 3.53694 14.0867 3.27713C13.4147 3.01732 12.6979 2.89328 11.9777 2.91218Z" fill="#5225CE"/>
</g>
<defs>
<clipPath id="clip0_869_949">
<rect width="24" height="24" fill="white" transform="translate(0 0.339844)"/>
</clipPath>
</defs>
</svg>
