<svg width="24" height="24" viewBox="0 0 24 24" fill="none" xmlns="http://www.w3.org/2000/svg">
<path d="M19.4992 6.29922H14.9992C14.9197 6.29922 14.8433 6.26761 14.7871 6.21135C14.7308 6.15509 14.6992 6.07878 14.6992 5.99922V1.49922C14.6992 1.41965 14.7308 1.34335 14.7871 1.28709C14.8433 1.23083 14.9197 1.19922 14.9992 1.19922C15.0788 1.19922 15.1551 1.23083 15.2114 1.28709C15.2676 1.34335 15.2992 1.41965 15.2992 1.49922V5.69922H19.4992C19.5788 5.69922 19.6551 5.73083 19.7113 5.78709C19.7676 5.84335 19.7992 5.91965 19.7992 5.99922C19.7992 6.07878 19.7676 6.15509 19.7113 6.21135C19.6551 6.26761 19.5788 6.29922 19.4992 6.29922Z" fill="#5225CE"/>
<path d="M19.4992 9.28902C19.4197 9.28902 19.3433 9.25741 19.2871 9.20115C19.2308 9.14489 19.1992 9.06858 19.1992 8.98902V6.12342L14.875 1.79922H5.99922C5.68096 1.79922 5.37573 1.92565 5.15069 2.15069C4.92565 2.37573 4.79922 2.68096 4.79922 2.99922V8.88942C4.79922 8.96898 4.76761 9.04529 4.71135 9.10155C4.65509 9.15781 4.57878 9.18942 4.49922 9.18942C4.41965 9.18942 4.34335 9.15781 4.28709 9.10155C4.23083 9.04529 4.19922 8.96898 4.19922 8.88942V2.99922C4.19922 2.52183 4.38886 2.06399 4.72643 1.72643C5.06399 1.38886 5.52183 1.19922 5.99922 1.19922H14.9992C15.0386 1.19915 15.0777 1.20685 15.1141 1.22188C15.1506 1.23691 15.1837 1.25898 15.2116 1.28682L19.7116 5.78682C19.7395 5.81473 19.7615 5.84786 19.7766 5.8843C19.7916 5.92075 19.7993 5.9598 19.7992 5.99922V8.98902C19.7992 9.02842 19.7915 9.06743 19.7764 9.10383C19.7613 9.14022 19.7392 9.17329 19.7114 9.20115C19.6835 9.22901 19.6504 9.25111 19.614 9.26618C19.5776 9.28126 19.5386 9.28902 19.4992 9.28902Z" fill="#5225CE"/>
<path d="M17.9992 22.7992H5.99922C5.52183 22.7992 5.06399 22.6096 4.72643 22.272C4.38886 21.9344 4.19922 21.4766 4.19922 20.9992V16.4992C4.19922 16.4197 4.23083 16.3433 4.28709 16.2871C4.34335 16.2308 4.41965 16.1992 4.49922 16.1992C4.57878 16.1992 4.65509 16.2308 4.71135 16.2871C4.76761 16.3433 4.79922 16.4197 4.79922 16.4992V20.9992C4.79922 21.3175 4.92565 21.6227 5.15069 21.8477C5.37573 22.0728 5.68096 22.1992 5.99922 22.1992H17.9992C18.3175 22.1992 18.6227 22.0728 18.8477 21.8477C19.0728 21.6227 19.1992 21.3175 19.1992 20.9992V16.4992C19.1992 16.4197 19.2308 16.3433 19.2871 16.2871C19.3433 16.2308 19.4197 16.1992 19.4992 16.1992C19.5788 16.1992 19.6551 16.2308 19.7114 16.2871C19.7676 16.3433 19.7992 16.4197 19.7992 16.4992V20.9992C19.7992 21.4766 19.6096 21.9344 19.272 22.272C18.9344 22.6096 18.4766 22.7992 17.9992 22.7992Z" fill="#5225CE"/>
<path d="M16.4992 16.7992H7.49922C7.41965 16.7992 7.34335 16.7676 7.28709 16.7114C7.23083 16.6551 7.19922 16.5788 7.19922 16.4992C7.19922 16.4197 7.23083 16.3433 7.28709 16.2871C7.34335 16.2308 7.41965 16.1992 7.49922 16.1992H16.4992C16.5788 16.1992 16.6551 16.2308 16.7114 16.2871C16.7676 16.3433 16.7992 16.4197 16.7992 16.4992C16.7992 16.5788 16.7676 16.6551 16.7114 16.7114C16.6551 16.7676 16.5788 16.7992 16.4992 16.7992Z" fill="#5225CE"/>
<path d="M11.9992 19.7992H7.49922C7.41965 19.7992 7.34335 19.7676 7.28709 19.7114C7.23083 19.6551 7.19922 19.5788 7.19922 19.4992C7.19922 19.4197 7.23083 19.3433 7.28709 19.2871C7.34335 19.2308 7.41965 19.1992 7.49922 19.1992H11.9992C12.0788 19.1992 12.1551 19.2308 12.2114 19.2871C12.2676 19.3433 12.2992 19.4197 12.2992 19.4992C12.2992 19.5788 12.2676 19.6551 12.2114 19.7114C12.1551 19.7676 12.0788 19.7992 11.9992 19.7992Z" fill="#5225CE"/>
<path d="M19.4992 16.7997H4.49922C4.02183 16.7997 3.56399 16.61 3.22643 16.2725C2.88886 15.9349 2.69922 15.4771 2.69922 14.9997V10.3899C2.69921 10.1525 2.74615 9.91754 2.83732 9.69841C2.92849 9.47927 3.0621 9.28034 3.23045 9.11304C3.39881 8.94575 3.59858 8.8134 3.81829 8.72361C4.03799 8.63383 4.27328 8.58838 4.51062 8.58988L19.5106 8.68948C19.9856 8.6939 20.4397 8.88532 20.7745 9.22225C21.1093 9.55919 21.2978 10.0145 21.2992 10.4895V14.9997C21.2992 15.4771 21.1096 15.9349 20.772 16.2725C20.4344 16.61 19.9766 16.7997 19.4992 16.7997ZM4.49922 9.18988C4.18096 9.18988 3.87573 9.31631 3.65069 9.54135C3.42565 9.7664 3.29922 10.0716 3.29922 10.3899V14.9997C3.29922 15.3179 3.42565 15.6232 3.65069 15.8482C3.87573 16.0733 4.18096 16.1997 4.49922 16.1997H19.4992C19.8175 16.1997 20.1227 16.0733 20.3477 15.8482C20.5728 15.6232 20.6992 15.3179 20.6992 14.9997V10.4895C20.6983 10.1728 20.5725 9.86916 20.3493 9.64452C20.126 9.41989 19.8231 9.29232 19.5064 9.28948L4.50642 9.18988H4.49922Z" fill="#5225CE"/>
<path d="M9.78971 14.1601H9.17111V11.4553H8.32031V10.9609H10.6405V11.4553H9.78971V14.1601Z" fill="#5225CE"/>
<path d="M13.3329 14.1601H12.6591L11.9511 12.9001L11.2011 14.1601H10.6641L11.6769 12.4939L10.8075 10.9609H11.4777L12.0681 12.0247L12.6939 10.9609H13.2339L12.3435 12.4201L13.3329 14.1601Z" fill="#5225CE"/>
<path d="M14.8288 14.1601H14.2102V11.4553H13.3594V10.9609H15.6796V11.4553H14.8288V14.1601Z" fill="#5225CE"/>
</svg>
