<svg width="20" height="22" viewBox="0 0 20 22" fill="none" xmlns="http://www.w3.org/2000/svg">
<path d="M17.4992 5.29922H12.9992C12.9197 5.29922 12.8433 5.26761 12.7871 5.21135C12.7308 5.15509 12.6992 5.07878 12.6992 4.99922V0.499219C12.6992 0.419654 12.7308 0.343348 12.7871 0.287087C12.8433 0.230826 12.9197 0.199219 12.9992 0.199219C13.0788 0.199219 13.1551 0.230826 13.2114 0.287087C13.2676 0.343348 13.2992 0.419654 13.2992 0.499219V4.69922H17.4992C17.5788 4.69922 17.6551 4.73083 17.7113 4.78709C17.7676 4.84335 17.7992 4.91965 17.7992 4.99922C17.7992 5.07878 17.7676 5.15509 17.7113 5.21135C17.6551 5.26761 17.5788 5.29922 17.4992 5.29922Z" fill="#5225CE"/>
<path d="M17.4992 8.28902C17.4197 8.28902 17.3433 8.25741 17.2871 8.20115C17.2308 8.14489 17.1992 8.06858 17.1992 7.98902V5.12342L12.875 0.799219H3.99922C3.68096 0.799219 3.37573 0.925647 3.15069 1.15069C2.92565 1.37573 2.79922 1.68096 2.79922 1.99922V7.88942C2.79922 7.96898 2.76761 8.04529 2.71135 8.10155C2.65509 8.15781 2.57878 8.18942 2.49922 8.18942C2.41965 8.18942 2.34335 8.15781 2.28709 8.10155C2.23083 8.04529 2.19922 7.96898 2.19922 7.88942V1.99922C2.19922 1.52183 2.38886 1.06399 2.72643 0.726427C3.06399 0.388862 3.52183 0.199219 3.99922 0.199219H12.9992C13.0386 0.199149 13.0777 0.206849 13.1141 0.22188C13.1506 0.236911 13.1837 0.258978 13.2116 0.286819L17.7116 4.78682C17.7395 4.81473 17.7615 4.84786 17.7766 4.8843C17.7916 4.92075 17.7993 4.9598 17.7992 4.99922V7.98902C17.7992 8.02842 17.7915 8.06743 17.7764 8.10383C17.7613 8.14022 17.7392 8.17329 17.7114 8.20115C17.6835 8.22901 17.6504 8.25111 17.614 8.26618C17.5776 8.28126 17.5386 8.28902 17.4992 8.28902Z" fill="#5225CE"/>
<path d="M15.9992 21.7992H3.99922C3.52183 21.7992 3.06399 21.6096 2.72643 21.272C2.38886 20.9344 2.19922 20.4766 2.19922 19.9992V15.4992C2.19922 15.4197 2.23083 15.3433 2.28709 15.2871C2.34335 15.2308 2.41965 15.1992 2.49922 15.1992C2.57878 15.1992 2.65509 15.2308 2.71135 15.2871C2.76761 15.3433 2.79922 15.4197 2.79922 15.4992V19.9992C2.79922 20.3175 2.92565 20.6227 3.15069 20.8477C3.37573 21.0728 3.68096 21.1992 3.99922 21.1992H15.9992C16.3175 21.1992 16.6227 21.0728 16.8477 20.8477C17.0728 20.6227 17.1992 20.3175 17.1992 19.9992V15.4992C17.1992 15.4197 17.2308 15.3433 17.2871 15.2871C17.3433 15.2308 17.4197 15.1992 17.4992 15.1992C17.5788 15.1992 17.6551 15.2308 17.7114 15.2871C17.7676 15.3433 17.7992 15.4197 17.7992 15.4992V19.9992C17.7992 20.4766 17.6096 20.9344 17.272 21.272C16.9344 21.6096 16.4766 21.7992 15.9992 21.7992Z" fill="#5225CE"/>
<path d="M14.4992 15.7992H5.49922C5.41965 15.7992 5.34335 15.7676 5.28709 15.7114C5.23083 15.6551 5.19922 15.5788 5.19922 15.4992C5.19922 15.4197 5.23083 15.3433 5.28709 15.2871C5.34335 15.2308 5.41965 15.1992 5.49922 15.1992H14.4992C14.5788 15.1992 14.6551 15.2308 14.7114 15.2871C14.7676 15.3433 14.7992 15.4197 14.7992 15.4992C14.7992 15.5788 14.7676 15.6551 14.7114 15.7114C14.6551 15.7676 14.5788 15.7992 14.4992 15.7992Z" fill="#5225CE"/>
<path d="M9.99922 18.7992H5.49922C5.41965 18.7992 5.34335 18.7676 5.28709 18.7114C5.23083 18.6551 5.19922 18.5788 5.19922 18.4992C5.19922 18.4197 5.23083 18.3433 5.28709 18.2871C5.34335 18.2308 5.41965 18.1992 5.49922 18.1992H9.99922C10.0788 18.1992 10.1551 18.2308 10.2114 18.2871C10.2676 18.3433 10.2992 18.4197 10.2992 18.4992C10.2992 18.5788 10.2676 18.6551 10.2114 18.7114C10.1551 18.7676 10.0788 18.7992 9.99922 18.7992Z" fill="#5225CE"/>
<path d="M17.4992 15.7996H2.49922C2.02183 15.7996 1.56399 15.61 1.22643 15.2724C0.888861 14.9349 0.699219 14.477 0.699219 13.9996V9.38984C0.699219 8.91245 0.888861 8.45462 1.22643 8.11705C1.56399 7.77949 2.02183 7.58984 2.49922 7.58984H2.51122L17.5112 7.68944C17.9862 7.69386 18.4403 7.88528 18.7751 8.22222C19.1099 8.55915 19.2984 9.01445 19.2998 9.48944V13.9996C19.2998 14.2361 19.2532 14.4702 19.1627 14.6886C19.0723 14.907 18.9396 15.1055 18.7724 15.2726C18.6052 15.4398 18.4067 15.5724 18.1882 15.6628C17.9698 15.7532 17.7356 15.7997 17.4992 15.7996ZM2.49922 8.18984C2.18096 8.18984 1.87573 8.31627 1.65069 8.54132C1.42565 8.76636 1.29922 9.07158 1.29922 9.38984V13.9996C1.29922 14.3179 1.42565 14.6231 1.65069 14.8482C1.87573 15.0732 2.18096 15.1996 2.49922 15.1996H17.4992C17.8175 15.1996 18.1227 15.0732 18.3477 14.8482C18.5728 14.6231 18.6992 14.3179 18.6992 13.9996V9.48944C18.6983 9.17272 18.5725 8.86912 18.3493 8.64449C18.126 8.41985 17.8231 8.29228 17.5064 8.28944L2.50642 8.18984H2.49922Z" fill="#5225CE"/>
<path d="M6.90936 13.1601H6.33276V11.7705H5.11176V13.1601H4.53516V9.96094H5.11176V11.2755H6.33276V9.96094H6.90936V13.1601Z" fill="#5225CE"/>
<path d="M8.72721 13.1601H8.10861V10.4553H7.25781V9.96094H9.57741V10.4553H8.72721V13.1601Z" fill="#5225CE"/>
<path d="M13.0692 13.1594H12.4812V10.3586L11.595 13.1594H11.295L10.4046 10.3586V13.1594H9.93359V9.96018H10.8336L11.5038 12.0194L12.1638 9.95898H13.071L13.0692 13.1594Z" fill="#5225CE"/>
<path d="M15.742 13.1601H13.7734V9.96094H14.3776V12.6375H15.7396L15.742 13.1601Z" fill="#5225CE"/>
</svg>
