<svg width="24" height="24" viewBox="0 0 24 24" fill="none" xmlns="http://www.w3.org/2000/svg">
<path d="M14.9376 15.6455L15.2506 15.9584L19.293 20.0009L19.9999 19.294L15.9574 15.2516L15.6444 14.9385L15.9172 14.5899C16.9424 13.2795 17.4996 11.6638 17.5 10L14.9376 15.6455ZM14.9376 15.6455L14.589 15.9181M14.9376 15.6455L14.589 15.9181M14.589 15.9181C13.2787 16.9428 11.6633 17.4996 10 17.5L14.589 15.9181ZM10 2.5C5.86514 2.5 2.5 5.86514 2.5 10C2.5 14.1348 5.86509 17.4999 9.9999 17.5L10 2.5ZM10 2.5C14.1348 2.5 17.4999 5.86508 17.5 9.99988L10 2.5Z" stroke="#5225CE"/>
</svg>
