<svg width="15" height="18" viewBox="0 0 15 18" fill="none" xmlns="http://www.w3.org/2000/svg">
<path d="M0.5 14.4167V12.7501H2.16667V14.4167H0.5ZM0.5 11.5001V9.83341H2.16667V11.5001H0.5ZM0.5 8.58341V6.91675H2.16667V8.58341H0.5ZM3.41667 17.3334V15.6667H5.08333V17.3334H3.41667ZM5.5 14.0001C5.04167 14.0001 4.64944 13.837 4.32333 13.5109C3.99722 13.1848 3.83389 12.7923 3.83333 12.3334V2.33341C3.83333 1.87508 3.99667 1.48286 4.32333 1.15675C4.65 0.830637 5.04222 0.667304 5.5 0.666748H13C13.4583 0.666748 13.8508 0.830081 14.1775 1.15675C14.5042 1.48341 14.6672 1.87564 14.6667 2.33341V12.3334C14.6667 12.7917 14.5036 13.1842 14.1775 13.5109C13.8514 13.8376 13.4589 14.0006 13 14.0001H5.5ZM6.33333 17.3334V15.6667H8V17.3334H6.33333ZM2.16667 17.3334C1.70833 17.3334 1.31611 17.1704 0.99 16.8442C0.663889 16.5181 0.500556 16.1256 0.5 15.6667H2.16667V17.3334ZM9.25 17.3334V15.6667H10.9167C10.9167 16.1251 10.7536 16.5176 10.4275 16.8442C10.1014 17.1709 9.70889 17.334 9.25 17.3334ZM0.5 5.66675C0.5 5.20841 0.663333 4.81619 0.99 4.49008C1.31667 4.16397 1.70889 4.00064 2.16667 4.00008V5.66675H0.5Z" fill="#5225CE"/>
</svg>
