<svg width="14" height="17" viewBox="0 0 14 17" fill="none" xmlns="http://www.w3.org/2000/svg">
<path d="M6.99986 3.16677V0.841773C6.99986 0.466773 6.54986 0.28344 6.29153 0.550107L3.12486 3.70844C2.95819 3.87511 2.95819 4.13344 3.12486 4.30011L6.28319 7.45844C6.54986 7.71677 6.99986 7.53344 6.99986 7.15844V4.83344C10.1082 4.83344 12.5665 7.68344 11.8832 10.9084C11.4915 12.8001 9.95819 14.3251 8.07486 14.7168C5.09986 15.3418 2.44986 13.3001 2.04986 10.5418C2.02015 10.3459 1.92163 10.167 1.77197 10.0372C1.62231 9.90741 1.4313 9.83516 1.23319 9.83344C0.733194 9.83344 0.333194 10.2751 0.399861 10.7751C0.916527 14.4334 4.39986 17.1418 8.34153 16.3751C10.9415 15.8668 13.0332 13.7751 13.5415 11.1751C14.3665 6.90011 11.1165 3.16677 6.99986 3.16677Z" fill="#5225CE"/>
</svg>
