<svg width="12" height="15" viewBox="0 0 12 15" fill="none" xmlns="http://www.w3.org/2000/svg">
<path d="M9.82484 5.5H8.49984V1.33333C8.49984 0.875 8.12484 0.5 7.6665 0.5H4.33317C3.87484 0.5 3.49984 0.875 3.49984 1.33333V5.5H2.17484C1.43317 5.5 1.05817 6.4 1.58317 6.925L5.40817 10.75C5.73317 11.075 6.25817 11.075 6.58317 10.75L10.4082 6.925C10.9332 6.4 10.5665 5.5 9.82484 5.5ZM0.166504 13.8333C0.166504 14.2917 0.541504 14.6667 0.999837 14.6667H10.9998C11.4582 14.6667 11.8332 14.2917 11.8332 13.8333C11.8332 13.375 11.4582 13 10.9998 13H0.999837C0.541504 13 0.166504 13.375 0.166504 13.8333Z" fill="#5225CE"/>
</svg>
